<?xml version="1.0" encoding="utf-8"?>
<!-- Generator: Adobe Illustrator 19.0.0, SVG Export Plug-In . SVG Version: 6.00 Build 0)  -->
<svg version="1.1" id="layer" xmlns="http://www.w3.org/2000/svg" xmlns:xlink="http://www.w3.org/1999/xlink" x="0px" y="0px"
	 viewBox="-153 -46 652 652" style="enable-background:new -153 -46 652 652;" xml:space="preserve">
<style type="text/css">
	.st0{fill:#67B2E8;}
	.st1{fill:#003A70;}
</style>
<path class="st0" d="M139.9,313.6c-5.9,0.5-12.9,1.5-16.5,2.8c-4.1,1.5-6.2,4.1-5.9,7.5c0.3,4.4,4.6,7.2,9.3,7.5
	c5.1,0.3,9.5-1.3,12.9-4.6v-13.1H139.9z M147.3,336.3c0,0.8-0.3,1-0.8,1h-5.7c-0.8,0-1-0.3-1-0.8v-2.3c-3.6,2.8-8,4.1-13.1,4.1
	c-6.7,0-11.3-2.1-14.4-6.4c-1.5-2.1-2.6-5.7-2.6-8.2c0-6.4,4.1-11.1,12.4-13.6c3.6-1,9.3-2.1,17.5-2.8c0.3-2.8-0.8-11.8-10.8-11.8
	c-4.4,0-8.5,1.5-12.9,4.6c-0.5,0.3-0.8,0.3-1.3-0.3l-3.1-4.4c-0.3-0.3-0.3-0.8,0.3-1.3c4.9-4.1,11.1-5.7,16.7-5.7
	c4.6,0,8.5,1,11.6,3.1c4.6,3.1,6.7,8.2,6.7,15.2v29.6H147.3z M192.4,331.4c0.5,0.5,0.5,0.8,0,1.3c-4.1,3.6-8.5,5.7-13.4,5.7
	c-10.3,0-15.2-5.4-15.2-16.2v-26h-6.2c-0.8,0-1-0.3-1-0.8v-5.1c0-0.8,0.3-1,1-1h5.9v-9.5c0-0.8,0.3-1,0.8-1h5.7
	c0.5,0,0.8,0.3,0.8,0.8v9.5H187c0.5,0,0.8,0.3,0.8,0.8v5.1c0,0.8-0.3,1-0.8,1h-16.2v25.5c0,6.7,2.6,10,7.7,10c2.8,0,5.9-1.3,8.5-3.9
	c0.3-0.3,0.8-0.3,1.3,0L192.4,331.4z M218.9,294.8c-4.1,0-7.5,1.3-10.3,4.1c-2.8,2.6-4.4,5.9-4.9,10h30.1c-0.3-4.1-1.5-7.2-4.4-10
	C226.4,296.1,222.7,294.8,218.9,294.8z M241.5,314.9c0,0.5-0.3,0.8-0.8,0.8h-37.1c0.3,4.4,1.8,8,4.9,10.8c3.3,3.1,7.5,4.6,12.6,4.6
	c4.6,0,8.8-1.3,12.4-3.9c0.5-0.3,1-0.5,1.3,0l3.9,4.1c0.5,0.5,0.5,0.8,0,1.3c-5.1,4.1-11.1,5.7-18,5.7c-7.2,0-13.4-2.3-18.3-7.2
	c-4.6-4.9-6.9-10.8-6.9-18.3c0-6.9,2.3-12.9,6.9-17.8c4.4-4.4,9.8-6.7,16.7-6.7c6.4,0,12.1,2.3,16.2,6.9c4.4,4.6,6.4,10.8,6.4,18
	L241.5,314.9z M280.7,298.7c-0.5,0.5-0.8,0.5-1.3,0.3c-2.1-1.5-4.4-3.1-6.7-3.1c-3.1,0-5.9,1.3-8.2,3.9c-2.8,3.3-4.1,8-4.1,14.4
	v22.1c0,0.8-0.3,1-0.8,1h-5.7c-0.8,0-1-0.3-1-0.8v-46.3c0-0.8,0.3-1,1-1h5.7c0.8,0,1,0.3,1,0.8v4.9h0.3c3.1-4.4,7.2-6.4,12.1-6.7
	c4.4-0.3,8.2,1.5,12.1,4.9c0.5,0.5,0.5,0.8,0,1.3L280.7,298.7z M101,318.5c0,5.7-1.8,10-5.1,13.6c-3.6,3.9-8.2,5.9-13.9,5.9
	c-7.2,0-12.6-2.8-15.7-8.5c-0.8,1.5-2.3,3.1-4.1,4.6c-3.3,2.6-6.9,3.9-11.1,3.9c-5.9,0-10.8-2.1-14.4-5.9c-3.3-3.6-5.1-8-5.1-13.6
	v-28.3c0-0.8,0.3-1,0.8-1h5.7c0.5,0,0.8,0.3,0.8,0.8v27.3c0,6.9,4.9,13.4,11.8,13.4c4.1,0,6.9-1.5,9-4.4c1.8-2.6,2.8-5.9,2.8-10v-26
	c0-0.8,0.3-1,0.8-1h5.7c0.5,0,0.8,0.3,0.8,0.8v26.3c0,4.4,1,7.7,2.8,10.3c2.1,2.8,4.9,4.4,9,4.4c7.5,0,11.8-6.4,11.8-13.4v-27.3
	c0-0.8,0.3-1,1-1h5.7c0.8,0,1,0.3,1,0.8V318.5z M70.4,204c-4.9,0-10,1.3-14.7,3.6c-7.7,3.9-14.2,7.7-19.8,11.1
	c-8.2,4.9-15.2,9-22.9,11.6c-18-5.7-30.1-12.6-43.8-21.1c-8.5-5.1-18-10.8-30.4-16.7c-7.7-3.6-15.4-5.4-23.2-5.4
	c-26.3,0-47.6,21.4-47.6,47.9c0,12.9,4.9,24.7,13.9,34c9,9,21.1,14.2,33.7,14.2c7.7,0,15.4-1.8,22.9-5.7
	c11.8-5.9,21.4-11.3,29.9-16.2c14.2-8.2,26.3-15.2,44.3-21.4c9.5,3.1,16.2,7.2,23.9,12.1c5.4,3.3,11.3,6.9,18.8,10.6
	c4.6,2.3,9.8,3.6,14.7,3.6l0,0c8.2,0,16-3.1,21.6-9c5.9-5.9,9-13.6,9-21.9C101,217.9,87.4,204,70.4,204z M70.4,218.6
	c8.8,0,16,7.2,16,16.2c0,9-7.2,16.2-16,16.2c-2.8,0-5.4-0.8-8.2-2.1c-6.9-3.3-12.4-6.7-17.8-10c-2.3-1.5-4.6-2.8-7.2-4.4
	c2.1-1,3.9-2.3,5.9-3.3c5.9-3.3,11.8-6.9,19-10.6C65,219.4,67.5,218.6,70.4,218.6z M-35.7,253.4c-8.8,5.1-17.8,10.3-29.3,16
	c-6.2,3.1-12.6,4.6-19,4.6c-10.3,0-20.1-4.1-27.5-11.6c-7.5-7.2-11.6-17-11.6-27.5c0-21.6,17.5-39.1,38.9-39.1
	c6.4,0,12.9,1.5,19,4.6c11.8,5.7,20.8,11.3,29.6,16.5c11.6,6.9,21.9,13.1,35.5,18.3C-13.8,240.5-24.1,246.7-35.7,253.4z"/>
<path class="st1" d="M385.2,297.9c-0.5,0.3-0.8,0.3-1,0.3c-2.3-1.5-4.6-3.3-7.5-3.3c-3.3,0-6.2,1.3-8.5,4.1
	c-2.8,3.3-4.4,8.2-4.4,14.9v22.4c0,0.5-0.3,0.8-0.8,0.8h-5.1c-0.5,0-0.8-0.3-0.8-0.8v-46.3c0-0.5,0.3-0.8,0.8-0.8h5.1
	c0.5,0,0.8,0.3,0.8,0.8v5.4h0.3c3.1-4.6,7.2-6.9,12.6-7.2c4.4-0.3,8.2,1.5,12.1,4.9c0.5,0.3,0.5,0.8,0,1L385.2,297.9z M310,300.2
	c-3.6,3.6-5.4,8-5.4,13.1s1.8,9.5,5.4,13.1c3.6,3.6,8,5.4,13.1,5.4c5.1,0,9.5-1.8,13.1-5.4s5.4-8,5.7-13.1c0-5.1-1.8-9.5-5.4-13.1
	c-3.6-3.6-8-5.7-13.1-5.7C318,294.6,313.6,296.4,310,300.2z M340.9,331.1c-4.9,4.9-10.8,7.2-17.8,7.2s-12.9-2.3-18-7.2
	c-4.9-4.9-7.5-10.8-7.5-17.8s2.6-12.9,7.5-17.8c5.1-4.9,10.8-7.5,18-7.5c6.9,0,12.9,2.6,17.8,7.5c4.9,4.9,7.5,10.8,7.5,17.8
	C348.4,320.3,345.8,326.2,340.9,331.1z M428.4,301.8c-3.3-4.6-8-6.9-14.2-6.9c-6.4,0-10.3,3.1-12.4,9.3c-1.5,4.4-2.1,8.8-1.3,13.4
	c1.3,9,5.9,14.4,13.6,14.4c6.4,0,11.3-2.3,14.4-7.2v-22.9H428.4z M435.1,338.3c0,15.4-8,23.7-21.9,23.7c-7.2,0-13.1-3.9-18-8.2
	c-0.3-0.3-0.3-0.5,0-0.8c0-0.3,1.8-2.1,1.8-2.1l2.1-1.8c0.3-0.3,0.8-0.3,1,0c4.6,4.1,8.8,6.7,13.1,6.7c10,0,15.2-5.4,15.2-16.5v-6.2
	c-3.9,3.6-8.8,5.4-14.9,5.4c-6.9,0-12.4-2.6-16.2-7.7c-3.3-4.6-5.1-10.3-5.1-17.2c0-6.4,1.5-12.1,4.9-16.7c3.9-5.4,9.3-8.2,16.5-8.2
	c5.7,0,10.6,1.8,14.9,5.1v-3.3c0-0.5,0.3-0.8,0.8-0.8h5.1c0.5,0,0.8,0.3,0.8,0.8L435.1,338.3L435.1,338.3z M283.8,327
	c3,0,5.4,2.4,5.4,5.4s-2.4,5.4-5.4,5.4s-5.4-2.4-5.4-5.4S280.8,327,283.8,327z M464.4,270.4c-2.1,2.1-4.9,3.3-7.7,3.3
	c-3.1,0-5.7-1-7.7-3.3c-2.1-2.1-3.1-4.9-3.1-7.7c0-3.1,1-5.7,3.3-7.7c2.1-2.1,4.6-3.3,7.7-3.3s5.7,1,7.7,3.3
	c2.1,2.1,3.3,4.6,3.3,7.7C467.8,265.5,466.8,268.3,464.4,270.4z M450,255.7c-1.8,1.8-2.8,4.1-2.8,6.7s1,4.9,2.8,6.7
	c1.8,1.8,4.1,2.8,6.7,2.8s4.9-1,6.7-2.8c1.8-1.8,2.8-4.1,2.8-6.7s-1-4.9-2.8-6.7c-1.8-1.8-4.1-2.8-6.7-2.8
	C454.2,253.1,451.8,253.9,450,255.7z M456.5,256.5c1.5,0,2.6,0.3,3.3,0.5c1.3,0.5,1.8,1.5,1.8,3.1c0,1-0.5,1.8-1.3,2.3
	c-0.5,0.3-1,0.5-1.8,0.5c1,0.3,1.5,0.5,2.1,1.3c0.5,0.5,0.8,1.3,0.8,1.8v0.8c0,0.3,0,0.5,0,1c0,0.3,0,0.5,0,0.5v0.3h-2.1l0,0
	c0,0,0,0,0-0.3v-0.5v-1c0-1.3-0.3-2.3-1-2.8c-0.5-0.3-1.3-0.5-2.3-0.5h-1.8v4.9h-2.1v-12.1h4.4V256.5z M458.8,258.3
	c-0.5-0.3-1.3-0.5-2.6-0.5h-1.8v4.4h2.1c1,0,1.5,0,2.1-0.3c0.8-0.3,1.3-1,1.3-1.8C459.6,259.3,459.3,258.5,458.8,258.3z"/>
</svg>
